<svg width="72" height="72" viewBox="0 0 450.75 996.8" xmlns="http://www.w3.org/2000/svg"><path d="m320.9 290.4-34.25 34.25v460.4l191.1 191.15 16.55-16.5v-.05L320.9 750.8V290.4m382.2 0v460.5l-.25.3 34.5-34.5V239L554.8 56.45l-25 25 173.3 208.9Z" transform="translate(-286.6 -13.65)" style="fill:#fff"/><path d="m529.75 81.5 25-25L512 13.65 286.65 239v85.65l62.15-62.15-.05-.05-27.85 27.9L512 60.15l17.75 21.35m207.6 703.6v-68.45l-34.5 34.5L512 981l-17.7-21.3-16.55 16.5 34.25 34.25L737.35 785.1m-34.5-34 .25-.3-48.4 48.4 48.15-48.1ZM703.1 588.55v-270.9l-382.2 202.9v206.2Z" transform="translate(-286.6 -13.65)" style="fill:#fff"/></svg>
